HIERARCHY
ROOT root     
{
	OFFSET 0.0000 0.0000 0.0000
	CHANNELS 6 Xposition Yposition Zposition Zrotation Yrotation Xrotation
	JOINT pelvis   
	{
		OFFSET 0.0000 0.0000 0.0000
		CHANNELS 3 Zrotation Yrotation Xrotation
		JOINT thorax   
		{
			OFFSET 0.0000 23.0750 -5.0000
			CHANNELS 3 Zrotation Yrotation Xrotation
			JOINT rclavicle
			{
				OFFSET 0.0000 28.0009 0.0000
				CHANNELS 3 Zrotation Yrotation Xrotation
				JOINT rhumerus 
				{
					OFFSET -18.5725 5.5939 0.0000
					CHANNELS 3 Zrotation Yrotation Xrotation
					JOINT rradius  
					{
						OFFSET -24.8459 0.0000 0.0000
						CHANNELS 3 Zrotation Yrotation Xrotation
						JOINT rhand    
						{
							OFFSET -24.5477 0.0000 0.0000
							CHANNELS 3 Zrotation Yrotation Xrotation
							End Site
							{
								OFFSET -8.1826 0.0000 0.0000
							}
						}
					}
				}
			}
			JOINT lclavicle
			{
				OFFSET 0.0000 28.0009 0.0000
				CHANNELS 3 Zrotation Yrotation Xrotation
				JOINT lhumerus 
				{
					OFFSET 18.5725 5.5939 0.0000
					CHANNELS 3 Zrotation Yrotation Xrotation
					JOINT lradius  
					{
						OFFSET 24.8459 0.0000 0.0000
						CHANNELS 3 Zrotation Yrotation Xrotation
						JOINT lhand    
						{
							OFFSET 24.5477 0.0000 0.0000
							CHANNELS 3 Zrotation Yrotation Xrotation
							End Site
							{
								OFFSET 8.1826 0.0000 0.0000
							}
						}
					}
				}
			}
			JOINT head     
			{
				OFFSET 0.0000 35.2030 0.0000
				CHANNELS 3 Zrotation Yrotation Xrotation
				End Site
				{
					OFFSET 0.0000 11.7343 0.0000
				}
			}
		}
		JOINT rfemur   
		{
			OFFSET -8.2817 0.0000 0.0000
			CHANNELS 3 Zrotation Yrotation Xrotation
			JOINT rtibia   
			{
				OFFSET 0.0000 -43.3627 0.0000
				CHANNELS 3 Zrotation Yrotation Xrotation
				JOINT rfoot    
				{
					OFFSET 0.0000 -38.2947 0.0000
					CHANNELS 3 Zrotation Yrotation Xrotation
					JOINT rtoes    
					{
						OFFSET 0.0000 0.0000 16.6054
						CHANNELS 3 Zrotation Yrotation Xrotation
						End Site
						{
							OFFSET 0.0000 0.0000 5.5351
						}
					}
				}
			}
		}
		JOINT lfemur   
		{
			OFFSET 8.2817 0.0000 0.0000
			CHANNELS 3 Zrotation Yrotation Xrotation
			JOINT ltibia   
			{
				OFFSET 0.0000 -43.3627 0.0000
				CHANNELS 3 Zrotation Yrotation Xrotation
				JOINT lfoot    
				{
					OFFSET 0.0000 -38.2947 0.0000
					CHANNELS 3 Zrotation Yrotation Xrotation
					JOINT ltoes    
					{
						OFFSET 0.0000 0.0000 16.6054
						CHANNELS 3 Zrotation Yrotation Xrotation
						End Site
						{
							OFFSET 0.0000 0.0000 5.5351
						}
					}
				}
			}
		}
	}
}
MOTION
Frames: 19
Frame Time: .0333333
34.094 101.32 2.3592 40.5276 -85.6554 -10.2796 0 -0 0 -0.161703 -5.61898 -2.09952 12.6627 -7.85348 3.96594e-05 29.6014 22.1143 -42.4115 -180 85.8212 -180 -27.2103 10.466 -2.53965 -15.1336 11.4148 5.06213e-05 -30.9373 -15.3876 -42.328 -180 -77.4209 180 33.2109 -3.41405 -1.01842 1.2924 -5.77183 -8.5828 2.42429 -16.9811 -47.9178 -0 -0 9.80894 -8.45053e-06 4.10072 29.1315 1.9989 1.49634e-05 -81.6507 -10.3683 8.23562 -48.3292 -0 -0 8.2591 -2.18567e-06 -0.309102 33.4956 -0.170603 -1.40171e-06 -67.5531 
33.341 100.15 2.2443 39.3748 -85.6991 -9.28288 0 -0 0 -0.113196 -5.68909 -1.96684 13.0672 -7.84713 -8.54547e-06 30.2341 22.0176 -41.4248 -180 86.2615 -180 -26.9266 10.5089 -2.52253 -15.3031 11.4107 4.14763e-05 -31.6225 -15.1169 -41.4935 -180 -78.347 180 32.9192 -3.36825 -0.995406 1.3914 -5.75163 -8.76993 2.56749 -17.0694 -48.2135 -0 -0 10.2417 -1.7325e-06 4.22565 30.654 2.15735 -2.27579e-05 -82.2366 -10.4426 8.40462 -48.6705 -0 -0 8.52555 -4.54938e-07 -0.504699 34.4901 -0.285797 -5.35028e-07 -68.2285 
32.576 98.897 2.1293 38.2233 -85.7755 -8.3292 0 -0 0 -0.0659048 -5.71854 -1.79181 13.4384 -7.83758 2.27729e-05 30.9132 21.9026 -40.4118 -180 86.7653 -180 -26.709 10.5501 -2.51126 -15.4556 11.4057 -9.41049e-05 -32.3498 -14.8746 -40.6016 -180 -79.3337 180 32.7159 -3.3325 -0.978398 1.50821 -5.74278 -9.01414 2.74478 -17.1691 -48.5444 -0 -0 10.9067 1.73755e-05 4.46687 32.2579 2.38757 -2.14286e-07 -82.765 -10.4743 8.57445 -48.9824 -0 -0 8.96677 5.1169e-06 -0.625397 35.4656 -0.3629 -2.40528e-06 -68.6641 
31.803 97.564 2.0156 37.1362 -85.8664 -7.46452 0 -0 0 -0.0243987 -5.71276 -1.58344 13.7748 -7.83121 -1.31196e-05 31.6348 21.7715 -39.3716 -180 87.3321 -180 -26.5357 10.5876 -2.50322 -15.5833 11.3938 -6.57442e-05 -33.111 -14.6437 -39.6608 -180 -80.3835 180 32.6013 -3.29838 -0.964771 1.63853 -5.73793 -9.32531 2.9308 -17.2641 -48.9266 -0 -0 11.8596 2.38474e-05 4.79139 33.7475 2.66614 -1.93637e-05 -83.1406 -10.4234 8.68693 -49.2651 -0 -0 9.60911 4.15611e-06 -0.605203 36.2564 -0.357905 5.84967e-06 -68.7247 
31.031 96.149 1.9012 36.0721 -85.9826 -6.63682 0 -0 0 0.0124004 -5.6776 -1.36322 14.0747 -7.83126 -2.13412e-07 32.3938 21.6291 -38.3149 -180 87.9614 -180 -26.3767 10.6194 -2.49516 -15.6771 11.3702 -1.73882e-05 -33.901 -14.4133 -38.6849 -180 -81.4729 180 32.5587 -3.25383 -0.950409 1.78134 -5.73071 -9.71478 3.07449 -17.2945 -49.3668 -0 -0 13.1252 3.31875e-05 5.08343 34.924 2.91532 6.31514e-05 -83.3287 -10.2645 8.7023 -49.5543 -0 -0 10.5084 4.84226e-06 -0.396899 36.6842 -0.237106 2.4958e-07 -68.4243 
30.272 94.65 1.7866 35.0754 -86.0972 -5.85824 0 -0 0 0.0361999 -5.62827 -1.1568 14.3479 -7.83915 3.85295e-05 33.1759 21.4795 -37.2574 -180 88.6263 -180 -26.2011 10.6421 -2.4834 -15.7379 11.3268 3.82214e-05 -34.7057 -14.1709 -37.6928 180 -82.6031 180 32.5717 -3.19339 -0.933207 1.93923 -5.71726 -10.1946 3.15005 -17.246 -49.9072 -0 -0 14.7707 2.84215e-05 5.27253 35.5654 3.07238 -3.98664e-05 -83.2637 -9.97746 8.56157 -49.8953 -0 -0 11.7204 -5.79403e-07 0.0571002 36.5722 0.0339997 2.73622e-07 -67.7597 
29.539 93.072 1.6711 34.2034 -86.1983 -5.15625 0 -0 0 0.0421999 -5.58096 -0.991092 14.6095 -7.85188 2.35034e-05 33.9684 21.3262 -36.2225 -180 89.3471 -180 -25.9753 10.6572 -2.46472 -15.7696 11.2544 -5.36071e-05 -35.5019 -13.9099 -36.7142 -180 -83.7506 180 32.617 -3.1201 -0.913079 2.11762 -5.69649 -10.779 3.13832 -17.1018 -50.5959 -0 -0 16.8494 8.62529e-06 5.28051 35.4675 3.06971 1.89924e-05 -82.9146 -9.57483 8.23989 -50.3653 -0 -0 13.3307 3.43121e-06 0.755901 35.7521 0.441699 5.04489e-06 -66.7026 
28.846 91.416 1.5539 33.4338 -86.2757 -4.4889 0 -0 0 0.0267 -5.55366 -0.884892 14.8725 -7.86372 3.54389e-06 34.7616 21.1727 -35.2376 -0 89.8058 -0 -25.6745 10.6706 -2.43825 -15.7749 11.1472 -1.59797e-05 -36.2791 -13.6315 -35.7771 180 -84.9247 180 32.679 -3.04972 -0.894315 2.32423 -5.6701 -11.4825 3.0417 -16.8706 -51.4827 -0 -0 19.4142 -5.52664e-06 5.07039 34.4784 2.87536 2.4903e-05 -82.3509 -9.0946 7.74639 -51.053 -0 -0 15.4363 1.47005e-05 1.65005 34.1013 0.925312 -4.04623e-07 -65.3496 
28.201 89.688 1.4338 32.8278 -86.2868 -3.88956 0 -0 0 -0.0131005 -5.5621 -0.84439 15.1496 -7.86584 -3.00149e-05 35.5515 21.0185 -34.3324 -0 89.1835 -0 -25.2854 10.6945 -2.40557 -15.7628 10.9988 -2.7737e-05 -37.0236 -13.3416 -34.9121 -180 -86.0926 180 32.7428 -3.00887 -0.884102 2.56679 -5.64203 -12.3186 2.87615 -16.5754 -52.6132 -0 -0 22.5024 -6.68781e-06 4.65231 32.5037 2.50387 -2.1738e-05 -81.5692 -8.59165 7.11874 -52.0449 -0 -0 18.1338 -9.32777e-06 2.6436 31.5465 1.38382 2.5044e-06 -63.6568 
27.611 87.892 1.3067 32.1392 -86.2633 -3.12807 0 -0 0 -0.0608998 -5.61613 -0.859203 15.4415 -7.84871 2.21863e-05 36.3442 20.8658 -33.5334 -1.07219e-05 88.4209 -1.04296e-05 -24.816 10.7485 -2.37138 -15.7439 10.8099 -9.52494e-05 -37.7323 -13.0533 -34.1423 -180 -87.2925 180 32.8084 -3.03367 -0.893283 2.84741 -5.61665 -13.299 2.67515 -16.2431 -54.005 -0 -0 26.1154 -2.62894e-05 4.06744 29.5417 2.00812 1.77571e-05 -80.4832 -8.10604 6.41565 -53.4094 -0 -0 21.4986 -6.06092e-06 3.63244 28.0934 1.71238 -2.95006e-05 -61.54 
27.075 86.037 1.1694 31.2195 -86.1901 -2.05864 0 -0 0 -0.0973957 -5.71499 -0.905119 15.747 -7.80232 -1.92039e-05 37.1547 20.7141 -32.8619 -6.03722e-06 87.677 -5.79848e-06 -24.2918 10.8563 -2.34323 -15.7316 10.5806 -2.37567e-05 -38.4081 -12.7812 -33.4864 180 -88.525 180 32.8851 -3.16084 -0.933002 3.16365 -5.59921 -14.4335 2.46818 -15.8913 -55.6479 -0 -0 30.2092 2.19475e-06 3.37039 25.6887 1.46238 5.24612e-06 -79.0815 -7.64636 5.68321 -55.164 -0 -0 25.5426 -8.62861e-06 4.55972 23.8516 1.84711 2.45448e-05 -58.9125 
26.591 84.132 1.0201 29.9289 -86.0677 -0.556568 0 -0 0 -0.104501 -5.84994 -0.950104 16.0562 -7.71834 3.66473e-05 38.0058 20.5654 -32.3283 -3.4081e-06 86.9732 -3.59301e-06 -23.7552 11.0445 -2.32986 -15.7409 10.3172 -1.9945e-05 -39.0608 -12.5433 -32.9512 180 -89.7478 -180 32.995 -3.42111 -1.01353 3.50911 -5.5932 -15.7272 2.27811 -15.53 -57.5117 -0 -0 34.7104 -1.21655e-05 2.61356 21.1308 0.942802 -1.26223e-06 -77.2779 -7.19129 4.94071 -57.2876 -0 -0 30.198 2.52704e-06 5.42847 19.0297 1.77481 -1.01646e-05 -55.7235 
26.156 82.194 0.86066 28.3513 -85.918 1.27831 0 -0 0 -0.0741053 -6.00611 -0.961603 16.3645 -7.58999 1.87129e-05 38.9253 20.4207 -31.931 -3.16588e-06 86.2735 -3.3794e-06 -23.2665 11.3366 -2.34125 -15.7921 10.024 -8.20248e-05 -39.701 -12.3535 -32.5347 9.20171e-06 -88.9264 -9.03292e-06 33.1612 -3.82955 -1.14068 3.87461 -5.60003 -17.1806 2.11373 -15.1611 -59.5611 -0 -0 39.516 -6.25997e-08 1.83021 16.1303 0.508587 -4.69252e-07 -75.1498 -6.70817 4.18985 -59.7124 -0 -0 35.3278 1.68318e-05 6.28354 13.9135 1.5166 -1.47697e-05 -52.0947 
25.767 80.245 0.69574 26.6653 -85.7468 3.25378 0 -0 0 -0.0127995 -6.16692 -0.912299 16.6701 -7.41503 -2.70523e-05 39.9363 20.2845 -31.6581 -1.86203e-06 85.5353 -2.01307e-06 -22.8848 11.751 -2.38651 -15.8951 9.7097 3.00003e-05 -40.3427 -12.2278 -32.2248 1.39709e-05 -87.5495 -1.4047e-05 33.4151 -4.38177 -1.31577 4.25105 -5.6197 -18.7832 1.9706 -14.7845 -61.7561 -0 -0 44.5186 -5.68688e-08 1.03431 10.975 0.196899 2.99084e-07 -72.7464 -6.18049 3.43116 -62.3651 -0 -0 40.7589 -2.47969e-07 7.17526 8.81396 1.10511 4.44833e-06 -48.3346 
25.42 78.31 0.53091 25.0693 -85.6056 5.15059 0 -0 0 0.0663999 -6.31598 -0.783201 16.9725 -7.19417 -2.05594e-07 41.0652 20.1603 -31.4836 -5.89631e-06 84.756 -6.14499e-06 -22.6721 12.2991 -2.47479 -16.0628 9.38079 1.98313e-05 -41 -12.175 -31.9969 0 -86.0576 0 33.7789 -5.05054 -1.53432 4.62893 -5.64825 -20.5192 1.83671 -14.393 -64.0643 -0 -0 49.6074 2.54232e-07 0.220004 5.95591 0.0227995 3.57526e-08 -70.2938 -5.61115 2.67874 -65.166 -0 -0 46.3166 -1.79293e-06 8.13421 4.02059 0.574206 3.02522e-08 -44.8782 
25.113 76.414 0.37133 23.7105 -85.4705 6.83556 0 -0 0 0.147802 -6.44143 -0.563495 17.2742 -6.92785 2.34369e-05 42.327 20.0484 -31.3753 -3.79989e-06 83.9013 -4.2274e-06 -22.6737 12.9778 -2.61263 -16.2981 9.03884 -4.83891e-05 -41.6827 -12.1886 -31.8227 1.4732e-06 -84.4111 -1.62431e-06 34.2691 -5.78556 -1.78512 4.99741 -5.679 -22.3644 1.70019 -13.9827 -66.4485 -0 -0 54.6765 -1.64869e-07 -0.626301 1.32862 -0.0145003 -1.74137e-07 -68.0918 -5.01955 1.95583 -68.0413 -0 -0 51.8358 -4.24819e-07 9.16368 -0.238806 -0.0384997 -3.7829e-07 -42.1349 
24.84 74.582 0.22125 22.7265 -85.3868 8.15119 0 -0 0 0.216405 -6.5355 -0.249901 17.5778 -6.62265 9.58149e-06 43.7355 19.952 -31.2938 -1.6193e-06 82.9052 -1.83317e-06 -22.9159 13.7736 -2.80476 -16.5962 8.69076 -2.2848e-05 -42.4105 -12.268 -31.6653 2.19105e-06 -82.608 -2.49355e-06 34.8879 -6.52287 -2.05167 5.34549 -5.70305 -24.2865 1.55173 -13.5513 -68.8753 -0 -0 59.6293 1.99746e-06 -1.51445 -2.71587 0.0717998 4.68084e-07 -66.338 -4.43229 1.28816 -70.9225 -0 -0 57.179 8.87309e-06 10.2418 -3.82022 -0.689688 -2.44321e-06 -40.3565 
24.597 72.836 0.08375 22.1288 -85.345 9.09364 0 -0 0 0.262005 -6.59647 0.153298 17.8839 -6.28543 -2.2546e-05 45.2886 19.8743 -31.2004 -1.58686e-06 81.7341 -1.37287e-06 -23.4023 14.6582 -3.05184 -16.9481 8.341 2.2324e-05 -43.1909 -12.4061 -31.4889 2.39413e-06 -80.6119 -2.82246e-06 35.6258 -7.18327 -2.31081 5.66072 -5.71014 -26.246 1.38664 -13.1016 -71.3065 -0 -0 64.381 1.72822e-06 -2.44418 -6.05594 0.258003 -8.29299e-07 -65.1679 -3.87424 0.697256 -73.7439 -0 -0 62.2323 -8.72833e-06 11.3287 -6.66755 -1.33252 -5.45983e-06 -39.5921 
24.379 71.195 -0.039202 21.9662 -85.3416 9.61586 0 -0 0 0.279799 -6.62842 0.635093 18.1909 -5.92368 -1.59894e-05 46.9697 19.8189 -31.0617 -0 80.306 -0 -24.11 15.5845 -3.34802 -17.3403 7.99313 5.85738e-05 -44.0332 -12.5926 -31.2609 1.34075e-06 -78.3946 -1.64415e-06 36.4453 -7.67867 -2.53138 5.93012 -5.68918 -28.1987 1.20547 -12.6403 -73.703 -0 -0 68.8534 -1.75954e-06 -3.40163 -8.64365 0.511799 1.22854e-06 -64.6413 -3.36493 0.194738 -76.4496 -0 -0 66.9056 -2.80994e-05 12.3779 -8.8029 -1.92349 -6.30529e-06 -39.7153 
